<svg width="720" height="480" viewBox="0 0 720 480" fill="none" xmlns="http://www.w3.org/2000/svg">
<defs>
  <linearGradient id="lg" x1="0" y1="0" x2="1" y2="1">
    <stop offset="0%" stop-color="#0D9488" stop-opacity="0.14"/>
    <stop offset="100%" stop-color="#10B981" stop-opacity="0.05"/>
  </linearGradient>
</defs>
<rect width="720" height="480" rx="28" fill="url(#lg)"/>
<rect x="60" y="70" width="600" height="340" rx="24" fill="white" stroke="#E2E8F0"/>
<rect x="100" y="120" width="520" height="40" rx="12" fill="#0D9488" opacity="0.12"/>
<rect x="120" y="134" width="200" height="14" rx="7" fill="#0D9488" opacity="0.22"/>
<rect x="100" y="180" width="260" height="18" rx="9" fill="#CBD5E1"/>
<rect x="100" y="210" width="220" height="14" rx="7" fill="#E2E8F0"/>
<rect x="100" y="230" width="200" height="14" rx="7" fill="#E2E8F0"/>
<rect x="100" y="270" width="180" height="40" rx="12" fill="#0D9488" opacity="0.2"/>
<rect x="300" y="270" width="140" height="40" rx="12" fill="#0D9488" opacity="0.12"/>
<rect x="480" y="270" width="120" height="40" rx="12" fill="#E2E8F0"/>
<rect x="420" y="180" width="200" height="18" rx="9" fill="#CBD5E1"/>
<rect x="420" y="210" width="180" height="14" rx="7" fill="#E2E8F0"/>
<rect x="420" y="230" width="140" height="14" rx="7" fill="#E2E8F0"/>
<circle cx="580" cy="330" r="18" fill="#0D9488" opacity="0.16"/>
</svg>
