<svg width="720" height="480" viewBox="0 0 720 480" fill="none" xmlns="http://www.w3.org/2000/svg">
<defs>
  <linearGradient id="g1" x1="0" y1="0" x2="1" y2="1">
    <stop offset="0%" stop-color="#10B981" stop-opacity="0.12"/>
    <stop offset="100%" stop-color="#0EA5E9" stop-opacity="0.06"/>
  </linearGradient>
</defs>
<rect width="720" height="480" rx="28" fill="url(#g1)"/>
<rect x="44" y="52" width="632" height="376" rx="24" fill="white" stroke="#E2E8F0"/>
<rect x="76" y="84" width="568" height="50" rx="14" fill="#0D9488" opacity="0.12"/>
<rect x="96" y="100" width="140" height="18" rx="9" fill="#0D9488" opacity="0.22"/>
<rect x="76" y="148" width="568" height="248" rx="18" fill="#F8FAFC" stroke="#E2E8F0"/>
<rect x="104" y="172" width="230" height="16" rx="8" fill="#CBD5E1"/>
<rect x="104" y="198" width="190" height="12" rx="6" fill="#E2E8F0"/>
<rect x="104" y="218" width="170" height="12" rx="6" fill="#E2E8F0"/>
<rect x="104" y="238" width="200" height="12" rx="6" fill="#E2E8F0"/>
<rect x="104" y="266" width="120" height="30" rx="10" fill="#0D9488" opacity="0.2"/>
<rect x="240" y="266" width="100" height="30" rx="10" fill="#0D9488" opacity="0.12"/>

<rect x="372" y="172" width="240" height="16" rx="8" fill="#CBD5E1"/>
<rect x="372" y="198" width="200" height="12" rx="6" fill="#E2E8F0"/>
<rect x="372" y="218" width="220" height="12" rx="6" fill="#E2E8F0"/>
<rect x="372" y="238" width="180" height="12" rx="6" fill="#E2E8F0"/>
<rect x="372" y="266" width="90" height="30" rx="10" fill="#0D9488" opacity="0.18"/>
<rect x="474" y="266" width="120" height="30" rx="10" fill="#0D9488" opacity="0.12"/>

<rect x="104" y="310" width="220" height="56" rx="12" fill="white" stroke="#E2E8F0"/>
<rect x="124" y="326" width="140" height="12" rx="6" fill="#CBD5E1"/>
<rect x="124" y="346" width="110" height="12" rx="6" fill="#E2E8F0"/>

<rect x="364" y="310" width="280" height="56" rx="12" fill="white" stroke="#E2E8F0"/>
<rect x="384" y="326" width="160" height="12" rx="6" fill="#CBD5E1"/>
<rect x="384" y="346" width="200" height="12" rx="6" fill="#E2E8F0"/>

<circle cx="600" cy="200" r="18" fill="#0D9488" opacity="0.16"/>
</svg>
