<svg width="720" height="480" viewBox="0 0 720 480" fill="none" xmlns="http://www.w3.org/2000/svg">
<defs>
  <linearGradient id="g1" x1="0" y1="0" x2="1" y2="1">
    <stop offset="0%" stop-color="#0EA5E9" stop-opacity="0.12"/>
    <stop offset="100%" stop-color="#10B981" stop-opacity="0.08"/>
  </linearGradient>
</defs>
<rect width="720" height="480" rx="28" fill="url(#g1)"/>
<rect x="40" y="48" width="640" height="384" rx="24" fill="white" stroke="#E2E8F0"/>
<rect x="72" y="80" width="576" height="56" rx="14" fill="#0D9488" opacity="0.12"/>
<rect x="96" y="98" width="200" height="20" rx="10" fill="#0D9488" opacity="0.22"/>
<rect x="320" y="98" width="140" height="20" rx="10" fill="white" />
<rect x="72" y="156" width="576" height="240" rx="18" fill="#F8FAFC" stroke="#E2E8F0"/>
<rect x="96" y="180" width="240" height="16" rx="8" fill="#CBD5E1"/>
<rect x="96" y="206" width="200" height="12" rx="6" fill="#E2E8F0"/>
<rect x="96" y="226" width="180" height="12" rx="6" fill="#E2E8F0"/>
<rect x="96" y="246" width="160" height="12" rx="6" fill="#E2E8F0"/>
<rect x="96" y="276" width="90" height="32" rx="10" fill="#0D9488" opacity="0.2"/>
<rect x="220" y="276" width="110" height="32" rx="10" fill="#0D9488" opacity="0.12"/>
<rect x="360" y="180" width="304" height="56" rx="14" fill="#0D9488" opacity="0.1"/>
<rect x="380" y="196" width="120" height="20" rx="10" fill="#0D9488" opacity="0.25"/>
<rect x="516" y="196" width="120" height="20" rx="10" fill="#E2E8F0"/>
<rect x="360" y="252" width="304" height="104" rx="14" fill="white" stroke="#E2E8F0"/>
<rect x="380" y="270" width="180" height="12" rx="6" fill="#CBD5E1"/>
<rect x="380" y="290" width="220" height="12" rx="6" fill="#E2E8F0"/>
<rect x="380" y="310" width="200" height="12" rx="6" fill="#E2E8F0"/>
<rect x="380" y="332" width="80" height="24" rx="8" fill="#0D9488" opacity="0.18"/>
<rect x="476" y="332" width="100" height="24" rx="8" fill="#0D9488" opacity="0.12"/>
</svg>
