<svg width="720" height="480" viewBox="0 0 720 480" fill="none" xmlns="http://www.w3.org/2000/svg">
<defs>
  <linearGradient id="g1" x1="0" y1="0" x2="1" y2="1">
    <stop offset="0%" stop-color="#0D9488" stop-opacity="0.12"/>
    <stop offset="100%" stop-color="#0D9488" stop-opacity="0.03"/>
  </linearGradient>
  <linearGradient id="g2" x1="0" y1="0" x2="1" y2="1">
    <stop offset="0%" stop-color="#10B981" stop-opacity="0.18"/>
    <stop offset="100%" stop-color="#0EA5E9" stop-opacity="0.08"/>
  </linearGradient>
</defs>
<rect width="720" height="480" rx="28" fill="url(#g1)"/>
<rect x="32" y="40" width="656" height="400" rx="20" fill="white" stroke="#E2E8F0"/>
<rect x="64" y="72" width="592" height="80" rx="16" fill="url(#g2)" />
<rect x="88" y="100" width="180" height="24" rx="8" fill="white" />
<rect x="300" y="100" width="200" height="24" rx="8" fill="#0D9488" opacity="0.12" />
<rect x="520" y="100" width="100" height="24" rx="8" fill="#0D9488" opacity="0.18" />
<rect x="64" y="180" width="200" height="180" rx="16" fill="#F8FAFC" stroke="#E2E8F0"/>
<rect x="84" y="200" width="160" height="14" rx="6" fill="#CBD5E1"/>
<rect x="84" y="222" width="140" height="12" rx="6" fill="#E2E8F0"/>
<rect x="84" y="242" width="120" height="12" rx="6" fill="#E2E8F0"/>
<rect x="84" y="264" width="150" height="12" rx="6" fill="#E2E8F0"/>
<rect x="84" y="286" width="110" height="12" rx="6" fill="#E2E8F0"/>
<rect x="304" y="180" width="352" height="180" rx="16" fill="#F8FAFC" stroke="#E2E8F0"/>
<rect x="324" y="200" width="180" height="16" rx="8" fill="#0D9488" opacity="0.18"/>
<rect x="324" y="224" width="280" height="12" rx="6" fill="#E2E8F0"/>
<rect x="324" y="244" width="260" height="12" rx="6" fill="#E2E8F0"/>
<rect x="324" y="264" width="240" height="12" rx="6" fill="#E2E8F0"/>
<rect x="324" y="294" width="80" height="32" rx="10" fill="#0D9488" opacity="0.18"/>
<rect x="420" y="294" width="120" height="32" rx="10" fill="#0D9488" opacity="0.12"/>
<circle cx="640" cy="320" r="24" fill="#0D9488" opacity="0.16"/>
<rect x="520" y="320" width="100" height="12" rx="6" fill="#E2E8F0"/>
<rect x="520" y="340" width="140" height="12" rx="6" fill="#E2E8F0"/>
</svg>
